<svg 
 xmlns="http://www.w3.org/2000/svg"
 xmlns:xlink="http://www.w3.org/1999/xlink"
 width="49px" height="49px">
<path fill-rule="evenodd"  fill="rgb(255, 255, 255)"
 d="M47.293,47.428 C46.120,48.601 44.218,48.601 43.044,47.428 L33.583,37.966 C25.348,44.124 13.669,43.540 6.185,36.056 C-2.027,27.845 -2.027,14.531 6.185,6.320 C14.396,-1.892 27.710,-1.892 35.921,6.320 C43.406,13.804 43.989,25.483 37.831,33.718 L47.293,43.179 C48.466,44.353 48.466,46.255 47.293,47.428 ZM31.673,10.568 C25.808,4.702 16.298,4.702 10.433,10.568 C4.567,16.433 4.567,25.943 10.433,31.808 C16.298,37.674 25.808,37.674 31.673,31.808 C37.539,25.943 37.539,16.433 31.673,10.568 Z"/>
</svg>