<svg 
 xmlns="http://www.w3.org/2000/svg"
 xmlns:xlink="http://www.w3.org/1999/xlink"
 width="37px" height="36px">
<path fill-rule="evenodd"  fill="rgb(46, 204, 113)"
 d="M36.012,20.328 L27.034,29.265 L25.537,30.755 C19.753,36.514 10.374,36.514 4.589,30.755 C-1.196,24.996 -1.196,15.660 4.589,9.901 L6.085,8.412 L9.078,11.391 L7.582,12.880 C3.450,16.994 3.450,23.663 7.582,27.776 C11.714,31.889 18.413,31.889 22.545,27.776 L24.041,26.286 L24.041,26.286 L33.019,17.349 C33.845,16.526 35.185,16.526 36.012,17.349 C36.838,18.171 36.838,19.505 36.012,20.328 ZM21.048,23.307 L21.048,23.307 C18.569,25.775 14.550,25.775 12.070,23.307 C9.591,20.839 9.591,16.838 12.070,14.370 L15.063,11.391 C15.889,10.568 17.229,10.568 18.056,11.391 C18.882,12.213 18.882,13.547 18.056,14.370 L15.063,17.349 C14.237,18.171 14.237,19.505 15.063,20.328 C15.889,21.151 17.229,21.151 18.056,20.328 L22.545,15.859 C25.024,13.391 25.024,9.390 22.545,6.922 C20.065,4.454 16.046,4.454 13.567,6.922 L9.078,11.391 L6.085,8.412 L10.574,3.943 C14.706,-0.170 21.405,-0.170 25.537,3.943 C29.669,8.056 29.669,14.725 25.537,18.839 L21.048,23.307 Z"/>
</svg>