<svg 
 xmlns="http://www.w3.org/2000/svg"
 xmlns:xlink="http://www.w3.org/1999/xlink"
 width="31px" height="45px">
<path fill-rule="evenodd"  fill="rgb(46, 204, 113)"
 d="M30.218,12.549 L16.586,36.571 L1.014,44.941 L0.057,26.863 L13.689,2.842 C15.195,0.188 18.531,-0.721 21.138,0.811 L28.222,4.972 C30.830,6.503 31.724,9.897 30.218,12.549 ZM6.381,35.620 L13.226,31.395 L20.043,19.384 L12.959,15.224 L6.143,27.234 L6.381,35.620 ZM23.134,8.389 L20.773,7.002 C19.469,6.236 17.802,6.691 17.049,8.017 L15.686,10.420 L22.769,14.580 L24.133,12.178 C24.886,10.851 24.439,9.155 23.134,8.389 Z"/>
</svg>