<svg 
 xmlns="http://www.w3.org/2000/svg"
 xmlns:xlink="http://www.w3.org/1999/xlink"
 width="36px" height="36px">
<path fill-rule="evenodd"  fill="rgb(46, 204, 113)"
 d="M36.000,25.516 C36.000,29.805 32.524,33.282 28.235,33.282 L24.107,33.282 C22.543,34.658 20.497,35.500 18.250,35.500 L9.375,35.500 C4.474,35.500 0.500,31.527 0.500,26.625 C0.500,23.723 1.914,21.170 4.068,19.550 C3.235,17.682 2.719,15.580 2.719,13.313 C2.719,5.960 7.686,0.000 13.813,0.000 C16.617,0.000 19.171,1.259 21.125,3.319 C22.276,2.635 23.547,2.219 24.906,2.219 C29.808,2.219 33.782,7.186 33.782,13.313 C33.782,15.410 33.289,17.351 32.479,19.024 C34.596,20.411 36.000,22.796 36.000,25.516 ZM13.813,4.438 C10.136,4.438 7.157,8.411 7.157,13.313 C7.157,18.214 10.136,22.188 13.813,22.188 C17.489,22.188 20.469,18.214 20.469,13.313 C20.469,8.411 17.489,4.438 13.813,4.438 ZM13.813,26.625 C11.002,26.625 8.465,25.330 6.510,23.263 C5.556,24.076 4.938,25.273 4.938,26.625 C4.938,29.076 6.924,31.063 9.375,31.063 L18.250,31.063 C20.701,31.063 22.688,29.076 22.688,26.625 C22.688,25.273 22.070,24.076 21.115,23.263 C19.160,25.330 16.623,26.625 13.813,26.625 ZM24.906,6.656 C24.441,6.656 24.001,6.795 23.579,6.997 C24.425,8.876 24.906,11.027 24.906,13.313 C24.906,14.914 24.638,16.427 24.194,17.839 C24.203,17.808 24.218,17.781 24.227,17.750 L28.192,17.750 C28.901,16.571 29.344,15.025 29.344,13.313 C29.344,9.637 27.357,6.656 24.906,6.656 ZM28.235,22.188 L25.901,22.188 C26.669,23.491 27.125,24.999 27.125,26.625 C27.125,27.393 27.017,28.134 26.834,28.844 L28.235,28.844 C30.072,28.844 31.563,27.354 31.563,25.516 C31.563,23.678 30.072,22.188 28.235,22.188 Z"/>
</svg>