<svg 
 xmlns="http://www.w3.org/2000/svg"
 xmlns:xlink="http://www.w3.org/1999/xlink"
 width="41px" height="41px">
<path fill-rule="evenodd"  fill="rgb(46, 204, 113)"
 d="M20.250,41.000 C9.067,41.000 0.000,31.934 0.000,20.750 C0.000,9.567 9.067,0.500 20.250,0.500 C31.434,0.500 40.500,9.567 40.500,20.750 C40.500,31.934 31.434,41.000 20.250,41.000 ZM5.820,20.418 C7.241,20.260 10.182,20.043 11.572,20.750 C13.975,21.974 16.587,24.941 16.587,24.941 L10.819,31.636 C13.357,33.836 16.628,35.214 20.250,35.214 C28.239,35.214 34.715,28.739 34.715,20.750 C34.715,19.382 34.464,18.084 34.108,16.829 C32.931,18.204 30.546,19.965 30.546,19.965 C28.520,19.742 29.503,22.244 29.503,22.244 C30.357,27.787 27.419,28.471 27.419,28.471 C23.411,32.587 20.250,23.643 20.250,23.643 C19.508,18.664 19.081,17.072 19.081,17.072 C13.951,13.865 19.006,12.697 20.092,12.511 C20.106,12.509 20.109,12.514 20.124,12.512 C20.385,12.474 20.322,12.471 20.092,12.511 C18.641,12.710 18.918,11.828 18.039,10.233 C17.152,8.622 16.066,10.503 15.955,10.233 C15.843,9.962 15.331,13.184 13.870,13.652 C12.410,14.121 12.828,10.233 12.828,10.233 C10.007,14.552 9.086,13.449 8.790,12.029 C7.009,14.377 5.893,17.258 5.820,20.418 Z"/>
</svg>